<mxfile host="www.draw.io" modified="2023-03-28T01:45:31.231Z" agent="Mozilla/5.0 (Windows NT 10.0; Win64; x64) AppleWebKit/537.36 (KHTML, like Gecko) Chrome/111.0.0.0 Safari/537.36" etag="PV5NwbIa3NhJhKWqWk1Q" version="21.1.1" type="device">
  <diagram name="Page-1" id="ghTNlvf171UPnkNpokp1">
    <mxGraphModel dx="1434" dy="768" grid="1" gridSize="10" guides="1" tooltips="1" connect="1" arrows="1" fold="1" page="1" pageScale="1" pageWidth="850" pageHeight="1100" math="0" shadow="0">
      <root>
        <mxCell id="0" />
        <mxCell id="1" parent="0" />
        <mxCell id="zZq-6Ji2vOuY0WeldFOy-4" style="edgeStyle=orthogonalEdgeStyle;rounded=0;orthogonalLoop=1;jettySize=auto;html=1;exitX=0.5;exitY=1;exitDx=0;exitDy=0;entryX=0.5;entryY=0;entryDx=0;entryDy=0;" edge="1" parent="1" source="zZq-6Ji2vOuY0WeldFOy-2" target="zZq-6Ji2vOuY0WeldFOy-3">
          <mxGeometry relative="1" as="geometry" />
        </mxCell>
        <mxCell id="zZq-6Ji2vOuY0WeldFOy-2" value="Start" style="rounded=1;whiteSpace=wrap;html=1;" vertex="1" parent="1">
          <mxGeometry x="365" y="30" width="120" height="60" as="geometry" />
        </mxCell>
        <mxCell id="zZq-6Ji2vOuY0WeldFOy-6" style="edgeStyle=orthogonalEdgeStyle;rounded=0;orthogonalLoop=1;jettySize=auto;html=1;exitX=0;exitY=0.5;exitDx=0;exitDy=0;entryX=1;entryY=0.5;entryDx=0;entryDy=0;" edge="1" parent="1" source="zZq-6Ji2vOuY0WeldFOy-3" target="zZq-6Ji2vOuY0WeldFOy-5">
          <mxGeometry relative="1" as="geometry" />
        </mxCell>
        <mxCell id="zZq-6Ji2vOuY0WeldFOy-13" style="edgeStyle=orthogonalEdgeStyle;rounded=0;orthogonalLoop=1;jettySize=auto;html=1;exitX=1;exitY=0.5;exitDx=0;exitDy=0;entryX=0;entryY=0.5;entryDx=0;entryDy=0;" edge="1" parent="1" source="zZq-6Ji2vOuY0WeldFOy-3" target="zZq-6Ji2vOuY0WeldFOy-12">
          <mxGeometry relative="1" as="geometry" />
        </mxCell>
        <mxCell id="zZq-6Ji2vOuY0WeldFOy-3" value="Admin/User" style="rounded=1;whiteSpace=wrap;html=1;" vertex="1" parent="1">
          <mxGeometry x="365" y="140" width="120" height="60" as="geometry" />
        </mxCell>
        <mxCell id="zZq-6Ji2vOuY0WeldFOy-9" style="edgeStyle=orthogonalEdgeStyle;rounded=0;orthogonalLoop=1;jettySize=auto;html=1;exitX=0.5;exitY=1;exitDx=0;exitDy=0;entryX=0.5;entryY=0;entryDx=0;entryDy=0;" edge="1" parent="1" source="zZq-6Ji2vOuY0WeldFOy-5" target="zZq-6Ji2vOuY0WeldFOy-8">
          <mxGeometry relative="1" as="geometry" />
        </mxCell>
        <mxCell id="zZq-6Ji2vOuY0WeldFOy-10" style="edgeStyle=orthogonalEdgeStyle;rounded=0;orthogonalLoop=1;jettySize=auto;html=1;exitX=0.5;exitY=1;exitDx=0;exitDy=0;entryX=0.5;entryY=0;entryDx=0;entryDy=0;" edge="1" parent="1" source="zZq-6Ji2vOuY0WeldFOy-5" target="zZq-6Ji2vOuY0WeldFOy-7">
          <mxGeometry relative="1" as="geometry" />
        </mxCell>
        <mxCell id="zZq-6Ji2vOuY0WeldFOy-5" value="User" style="rounded=1;whiteSpace=wrap;html=1;" vertex="1" parent="1">
          <mxGeometry x="160" y="140" width="120" height="60" as="geometry" />
        </mxCell>
        <mxCell id="zZq-6Ji2vOuY0WeldFOy-19" style="edgeStyle=orthogonalEdgeStyle;rounded=0;orthogonalLoop=1;jettySize=auto;html=1;exitX=0.5;exitY=1;exitDx=0;exitDy=0;entryX=0.5;entryY=0;entryDx=0;entryDy=0;" edge="1" parent="1" source="zZq-6Ji2vOuY0WeldFOy-7" target="zZq-6Ji2vOuY0WeldFOy-18">
          <mxGeometry relative="1" as="geometry" />
        </mxCell>
        <mxCell id="zZq-6Ji2vOuY0WeldFOy-21" style="edgeStyle=orthogonalEdgeStyle;rounded=0;orthogonalLoop=1;jettySize=auto;html=1;exitX=0.75;exitY=0;exitDx=0;exitDy=0;entryX=0;entryY=0.5;entryDx=0;entryDy=0;" edge="1" parent="1" source="zZq-6Ji2vOuY0WeldFOy-7" target="zZq-6Ji2vOuY0WeldFOy-8">
          <mxGeometry relative="1" as="geometry" />
        </mxCell>
        <mxCell id="zZq-6Ji2vOuY0WeldFOy-7" value="Open Cart" style="rounded=1;whiteSpace=wrap;html=1;" vertex="1" parent="1">
          <mxGeometry x="50" y="330" width="120" height="60" as="geometry" />
        </mxCell>
        <mxCell id="zZq-6Ji2vOuY0WeldFOy-15" style="edgeStyle=orthogonalEdgeStyle;rounded=0;orthogonalLoop=1;jettySize=auto;html=1;exitX=0.5;exitY=1;exitDx=0;exitDy=0;" edge="1" parent="1" source="zZq-6Ji2vOuY0WeldFOy-8" target="zZq-6Ji2vOuY0WeldFOy-14">
          <mxGeometry relative="1" as="geometry" />
        </mxCell>
        <mxCell id="zZq-6Ji2vOuY0WeldFOy-8" value="Open Storefront" style="rounded=1;whiteSpace=wrap;html=1;" vertex="1" parent="1">
          <mxGeometry x="260" y="250" width="120" height="60" as="geometry" />
        </mxCell>
        <mxCell id="zZq-6Ji2vOuY0WeldFOy-12" value="Admin" style="rounded=1;whiteSpace=wrap;html=1;" vertex="1" parent="1">
          <mxGeometry x="600" y="140" width="120" height="60" as="geometry" />
        </mxCell>
        <mxCell id="zZq-6Ji2vOuY0WeldFOy-16" style="edgeStyle=orthogonalEdgeStyle;rounded=0;orthogonalLoop=1;jettySize=auto;html=1;exitX=0;exitY=0.5;exitDx=0;exitDy=0;entryX=1;entryY=0.5;entryDx=0;entryDy=0;" edge="1" parent="1" source="zZq-6Ji2vOuY0WeldFOy-14" target="zZq-6Ji2vOuY0WeldFOy-7">
          <mxGeometry relative="1" as="geometry" />
        </mxCell>
        <mxCell id="zZq-6Ji2vOuY0WeldFOy-17" style="edgeStyle=orthogonalEdgeStyle;rounded=0;orthogonalLoop=1;jettySize=auto;html=1;exitX=1;exitY=0.5;exitDx=0;exitDy=0;entryX=1;entryY=0.5;entryDx=0;entryDy=0;" edge="1" parent="1" source="zZq-6Ji2vOuY0WeldFOy-14" target="zZq-6Ji2vOuY0WeldFOy-8">
          <mxGeometry relative="1" as="geometry" />
        </mxCell>
        <mxCell id="zZq-6Ji2vOuY0WeldFOy-14" value="Add to cart" style="rounded=1;whiteSpace=wrap;html=1;" vertex="1" parent="1">
          <mxGeometry x="260" y="330" width="120" height="60" as="geometry" />
        </mxCell>
        <mxCell id="zZq-6Ji2vOuY0WeldFOy-18" value="Checkout" style="rounded=1;whiteSpace=wrap;html=1;" vertex="1" parent="1">
          <mxGeometry x="50" y="430" width="120" height="60" as="geometry" />
        </mxCell>
      </root>
    </mxGraphModel>
  </diagram>
</mxfile>
